<svg width="94" height="30" viewBox="0 0 94 30" fill="none" xmlns="http://www.w3.org/2000/svg">
<path d="M39.7979 24.2188V27.9319H40.1676V24.2188H39.7979Z" fill="#1E1E1E"/>
<path d="M43.5923 25.6703C43.3899 25.4832 43.1375 25.3894 42.835 25.3894C42.6211 25.3894 42.44 25.4114 42.2911 25.4555C42.1427 25.4996 42.0041 25.5894 41.8742 25.7256L41.7902 25.4278H41.5045V27.9317H41.8742V26.5026C41.8742 26.3523 41.9052 26.2229 41.9673 26.1144C42.0294 26.0059 42.1094 25.9251 42.2077 25.8709C42.3054 25.8172 42.3986 25.7793 42.4871 25.7584C42.5751 25.7369 42.6596 25.7262 42.7407 25.7262C42.9765 25.7262 43.1662 25.7997 43.31 25.9466C43.4543 26.0935 43.5262 26.2788 43.5262 26.5026V27.9317H43.8959V26.4783C43.8959 26.1268 43.7947 25.8579 43.5923 25.6703Z" fill="#1E1E1E"/>
<path d="M47.4373 24.2186V25.7901C47.3603 25.6951 47.2706 25.6189 47.1688 25.5607C47.067 25.5024 46.9595 25.4623 46.8451 25.4397C46.7312 25.4171 46.6398 25.4036 46.5714 25.3979C46.503 25.3923 46.4196 25.3894 46.3201 25.3894C45.9676 25.3894 45.6744 25.5041 45.4404 25.7336C45.2063 25.963 45.0896 26.2789 45.0896 26.6818C45.0896 27.0847 45.2063 27.4 45.4392 27.6272C45.6727 27.8543 45.9659 27.9685 46.3201 27.9685C46.419 27.9685 46.503 27.9656 46.5714 27.9606C46.6398 27.9549 46.7312 27.9413 46.8451 27.9204C46.9595 27.899 47.0676 27.8583 47.1688 27.7995C47.2706 27.7402 47.3597 27.6633 47.4373 27.5684L47.5052 27.9312H47.8076V24.218H47.4373V24.2186ZM47.4327 26.8067C47.4287 26.8457 47.4189 26.9067 47.4017 26.9909C47.385 27.0751 47.3534 27.1502 47.3074 27.2169C47.2614 27.283 47.2033 27.3497 47.1331 27.4169C47.063 27.4842 46.9653 27.5367 46.8405 27.5752C46.7157 27.6136 46.572 27.6328 46.4104 27.6328C46.2195 27.6328 46.0567 27.6 45.9222 27.5351C45.7876 27.4695 45.6893 27.3836 45.6278 27.2774C45.5668 27.1706 45.5237 27.0694 45.4984 26.9739C45.4731 26.8784 45.4605 26.7807 45.4605 26.6823C45.4605 26.6089 45.4668 26.5337 45.4795 26.4563C45.4921 26.3795 45.5191 26.2958 45.5617 26.2065C45.6042 26.1173 45.6583 26.0376 45.725 25.9675C45.7917 25.8974 45.8837 25.8398 46.0015 25.794C46.1194 25.7483 46.2557 25.7251 46.4104 25.7251C46.5725 25.7251 46.7157 25.7443 46.8405 25.7827C46.9658 25.8212 47.063 25.8748 47.1331 25.9426C47.2033 26.0105 47.2614 26.0771 47.3074 26.1427C47.3528 26.2082 47.3844 26.284 47.4017 26.371C47.4189 26.458 47.4293 26.5207 47.4327 26.5592C47.4362 26.5976 47.4379 26.6388 47.4379 26.6829C47.4373 26.7275 47.4362 26.7682 47.4327 26.8067Z" fill="#1E1E1E"/>
<path d="M49.1445 25.4274V27.9313H49.5142V25.4274H49.1445ZM49.5102 24.3572C49.4573 24.3052 49.3957 24.2792 49.325 24.2792C49.2549 24.2792 49.1933 24.3052 49.1404 24.3572C49.0875 24.4091 49.0611 24.4719 49.0611 24.5453C49.0611 24.6182 49.0875 24.6809 49.1404 24.7318C49.1933 24.7827 49.2549 24.8081 49.325 24.8081C49.3952 24.8081 49.4567 24.7827 49.5102 24.7318C49.5631 24.6804 49.5895 24.6182 49.5895 24.5453C49.5895 24.4724 49.5631 24.4097 49.5102 24.3572Z" fill="#1E1E1E"/>
<path d="M52.9642 26.2619C52.955 26.1947 52.9286 26.106 52.8843 25.9958C52.84 25.8856 52.7825 25.7878 52.7106 25.7031C52.6382 25.6177 52.5307 25.5443 52.3869 25.4827C52.2426 25.4211 52.0758 25.39 51.8849 25.39C51.5089 25.39 51.2082 25.4776 50.9833 25.6533C51.0822 25.7805 51.1524 25.8669 51.1938 25.911C51.3812 25.7878 51.5905 25.7257 51.8223 25.7257C51.981 25.7257 52.1172 25.7505 52.2311 25.7997C52.3455 25.8489 52.426 25.9121 52.4743 25.989C52.522 26.0659 52.556 26.1354 52.5767 26.1975C52.5974 26.2591 52.6077 26.3162 52.6077 26.3682V26.4942H51.6791C51.3663 26.4942 51.1311 26.549 50.9747 26.6598C50.8183 26.7699 50.7401 26.9609 50.7401 27.2333C50.7401 27.4932 50.8338 27.6809 51.0224 27.7961C51.2105 27.9114 51.4295 27.9696 51.6797 27.9696C51.9079 27.9696 52.0977 27.9532 52.2489 27.9199C52.4001 27.8865 52.5289 27.8193 52.6347 27.717L52.683 27.9318H52.9774V26.4462C52.978 26.3902 52.9734 26.3286 52.9642 26.2619ZM52.6083 27.0853C52.5933 27.2966 52.5203 27.4407 52.3881 27.5175C52.2558 27.5944 52.0511 27.6328 51.774 27.6328C51.5313 27.6328 51.36 27.5899 51.2599 27.5034C51.1604 27.4175 51.1098 27.3271 51.1098 27.2322C51.1098 27.1067 51.1449 27.0084 51.2151 26.9366C51.2852 26.8649 51.4313 26.8293 51.6521 26.8293H52.6077V27.0853H52.6083Z" fill="#1E1E1E"/>
<path d="M56.999 26.8767C56.8863 26.7683 56.7511 26.6903 56.593 26.6428C56.4343 26.5953 56.2756 26.5513 56.1169 26.5111C55.9576 26.471 55.8219 26.4162 55.7104 26.3473C55.5988 26.2783 55.5431 26.1845 55.5431 26.0664C55.5431 25.9698 55.5879 25.8884 55.6776 25.8234C55.7673 25.7579 55.918 25.7251 56.1284 25.7251L56.2497 25.7308C56.3343 25.7381 56.4297 25.7669 56.5355 25.8184C56.6413 25.8692 56.7172 25.9387 56.7621 26.0269L57.0455 25.863C56.9898 25.7409 56.8794 25.6319 56.7138 25.5352C56.5482 25.4386 56.3527 25.39 56.1284 25.39C55.9283 25.39 55.7587 25.4166 55.6184 25.4697C55.4781 25.5222 55.3792 25.5901 55.3228 25.6726C55.2665 25.7551 55.2268 25.8285 55.2038 25.8929C55.1814 25.9574 55.1705 26.019 55.1705 26.0783C55.1705 26.2574 55.2268 26.4043 55.3389 26.5202C55.4516 26.6355 55.5868 26.718 55.7449 26.7671C55.903 26.8163 56.0617 26.8592 56.2198 26.896C56.378 26.9327 56.5137 26.9824 56.6258 27.0451C56.7379 27.1079 56.7943 27.1904 56.7943 27.2921C56.796 27.5192 56.574 27.6334 56.1278 27.6334L55.9875 27.6227C55.8961 27.6159 55.7915 27.5786 55.6747 27.5113C55.558 27.4441 55.4752 27.3497 55.4263 27.2277L55.0888 27.3056C55.2331 27.7481 55.581 27.9696 56.133 27.9696C56.3452 27.9696 56.5263 27.9447 56.6752 27.8956C56.8247 27.8464 56.9317 27.782 56.9967 27.7035C57.0611 27.6244 57.1059 27.5531 57.1301 27.4887C57.1542 27.4243 57.1663 27.3588 57.1663 27.2926C57.1674 27.1237 57.1111 26.9852 56.999 26.8767Z" fill="#1E1E1E"/>
<path d="M63.0922 24.8261C63.0111 24.6594 62.9019 24.5339 62.7639 24.4497C62.6265 24.3655 62.4867 24.3062 62.3447 24.2712C62.2027 24.2361 62.0503 24.2186 61.8887 24.2186H60.58V24.5498H61.2677V24.5543H61.937C62.2665 24.5543 62.5 24.6407 62.6374 24.812C62.7748 24.9837 62.8438 25.1889 62.8438 25.4273C62.8438 25.6658 62.7742 25.8709 62.6357 26.0438C62.4971 26.2168 62.2642 26.3032 61.9365 26.3032H60.9492V26.2942H60.5795V27.9312H60.9492V26.6389H61.8882C62.0503 26.6389 62.2021 26.6219 62.3441 26.5869C62.4862 26.5519 62.6265 26.4925 62.7633 26.4083C62.9007 26.3241 63.01 26.1987 63.0916 26.0308C63.1727 25.8636 63.213 25.6624 63.213 25.4279C63.2135 25.1928 63.1727 24.9922 63.0922 24.8261Z" fill="#1E1E1E"/>
<path d="M66.425 25.6703C66.2226 25.4833 65.9702 25.3895 65.6683 25.3895C65.4538 25.3895 65.2727 25.4115 65.1243 25.4556C64.976 25.4997 64.8368 25.5895 64.7069 25.7257V24.2186H64.3372V27.9318H64.7069V26.4569C64.7069 26.3173 64.7379 26.1964 64.8 26.0941C64.8621 25.9919 64.9421 25.9156 65.0404 25.8658C65.1387 25.8156 65.2313 25.7794 65.3198 25.7585C65.4078 25.737 65.4929 25.7263 65.5734 25.7263C65.8092 25.7263 65.9989 25.7997 66.1427 25.9466C66.287 26.0936 66.3589 26.2789 66.3589 26.5027V27.9318H66.7286V26.4784C66.728 26.1269 66.6274 25.8579 66.425 25.6703Z" fill="#1E1E1E"/>
<path d="M70.1464 26.2619C70.1372 26.1947 70.1107 26.106 70.067 25.9958C70.0227 25.8856 69.9647 25.7878 69.8928 25.7031C69.8209 25.6177 69.7128 25.5443 69.5691 25.4827C69.4253 25.4211 69.258 25.39 69.0671 25.39C68.6911 25.39 68.3909 25.4776 68.1661 25.6533C68.265 25.7805 68.3351 25.8669 68.3765 25.911C68.5634 25.7878 68.7727 25.7257 69.005 25.7257C69.1631 25.7257 69.2994 25.7505 69.4138 25.7997C69.5277 25.8489 69.6088 25.9121 69.6565 25.989C69.7042 26.0659 69.7381 26.1354 69.7588 26.1975C69.7795 26.2591 69.7899 26.3162 69.7899 26.3682V26.4942H68.8618C68.549 26.4942 68.3138 26.549 68.1574 26.6598C68.001 26.7699 67.9229 26.9609 67.9229 27.2333C67.9229 27.4932 68.0166 27.6809 68.2046 27.7961C68.3926 27.9114 68.6117 27.9696 68.8618 27.9696C69.0901 27.9696 69.2799 27.9532 69.4317 27.9199C69.5829 27.8865 69.7111 27.8193 69.8175 27.717L69.8663 27.9318H70.1602V26.4462C70.1596 26.3902 70.155 26.3286 70.1464 26.2619ZM69.7899 27.0853C69.7755 27.2966 69.7019 27.4407 69.5702 27.5175C69.438 27.5944 69.2333 27.6328 68.9561 27.6328C68.7135 27.6328 68.5416 27.5899 68.4421 27.5034C68.342 27.4175 68.292 27.3271 68.292 27.2322C68.292 27.1067 68.3271 27.0084 68.3972 26.9366C68.4674 26.8649 68.6134 26.8293 68.8348 26.8293H69.7899V27.0853Z" fill="#1E1E1E"/>
<path d="M72.7299 25.3894C72.5338 25.3894 72.3578 25.4261 72.2014 25.4996C72.045 25.5731 71.9226 25.6657 71.8346 25.7787L71.7403 25.4273H71.4655V27.9311H71.8352V26.5286C71.8352 26.3783 71.8674 26.2472 71.9312 26.1353C71.995 26.0234 72.0761 25.9392 72.1739 25.8839C72.2722 25.8285 72.3659 25.7884 72.4562 25.7629C72.5459 25.7381 72.6316 25.7251 72.7126 25.7251C72.8006 25.7251 72.9064 25.7341 73.0283 25.7522L73.0847 25.4324C72.9467 25.4041 72.8288 25.3894 72.7299 25.3894Z" fill="#1E1E1E"/>
<path d="M78.1267 26.1274C78.0934 26.0099 78.0399 25.8935 77.9663 25.7782C77.8927 25.6629 77.784 25.5691 77.6414 25.4974C77.4983 25.4256 77.3269 25.39 77.1274 25.39C76.703 25.39 76.3971 25.5918 76.2097 25.9947C76.055 25.5918 75.7508 25.39 75.2977 25.39C74.9993 25.39 74.7544 25.5109 74.5635 25.7528L74.4801 25.4279H74.1937V27.9318H74.5635V26.61C74.5635 26.445 74.5893 26.3021 74.6405 26.1811C74.6917 26.0602 74.748 25.9715 74.809 25.915C74.8705 25.8585 74.9424 25.815 75.0252 25.7833C75.108 25.7522 75.1649 25.7347 75.1965 25.7308C75.2282 25.7274 75.2529 25.7251 75.2707 25.7251C75.4144 25.7251 75.5369 25.7511 75.6375 25.802C75.7382 25.8534 75.8135 25.9195 75.8641 26.002C75.9147 26.0845 75.9492 26.1642 75.9693 26.241C75.9889 26.3179 75.9992 26.3936 75.9992 26.4671V27.9312H76.369V26.6095C76.369 26.4445 76.3948 26.3015 76.4472 26.1806C76.4995 26.0596 76.5553 25.9709 76.6156 25.9144C76.6754 25.8579 76.7473 25.8144 76.8313 25.7828C76.9152 25.7517 76.9727 25.7342 77.0043 25.7302C77.0354 25.7268 77.0607 25.7245 77.0785 25.7245C77.2205 25.7245 77.3424 25.7505 77.4442 25.8014C77.546 25.8528 77.6213 25.9189 77.6708 26.0014C77.7202 26.0839 77.7553 26.1636 77.776 26.2405C77.7967 26.3173 77.807 26.393 77.807 26.4665V27.9306H78.1768V26.488C78.1768 26.3653 78.1601 26.2444 78.1267 26.1274Z" fill="#1E1E1E"/>
<path d="M81.5946 26.2619C81.5854 26.1947 81.559 26.106 81.5153 25.9958C81.471 25.8856 81.4129 25.7878 81.341 25.7031C81.2686 25.6177 81.1611 25.5443 81.0173 25.4827C80.873 25.4211 80.7062 25.39 80.5153 25.39C80.1393 25.39 79.8386 25.4776 79.6137 25.6533C79.7126 25.7805 79.7828 25.8669 79.8242 25.911C80.0116 25.7878 80.2209 25.7257 80.4532 25.7257C80.6114 25.7257 80.7476 25.7505 80.8621 25.7997C80.9765 25.8489 81.057 25.9121 81.1053 25.989C81.153 26.0659 81.1869 26.1354 81.2076 26.1975C81.2283 26.2591 81.2387 26.3162 81.2387 26.3682V26.4942H80.3101C79.9973 26.4942 79.7621 26.549 79.6057 26.6598C79.4493 26.7699 79.3711 26.9609 79.3711 27.2333C79.3711 27.4932 79.4648 27.6809 79.6534 27.7961C79.8414 27.9114 80.0605 27.9696 80.3106 27.9696C80.5389 27.9696 80.7287 27.9532 80.8799 27.9199C81.0311 27.8865 81.1599 27.8193 81.2657 27.717L81.314 27.9318H81.6084V26.4462C81.6084 26.3902 81.6038 26.3286 81.5946 26.2619ZM81.2387 27.0853C81.2243 27.2966 81.1507 27.4407 81.0185 27.5175C80.8862 27.5944 80.6815 27.6328 80.4049 27.6328C80.1617 27.6328 79.9904 27.5899 79.8909 27.5034C79.7914 27.4175 79.7414 27.3271 79.7414 27.2322C79.7414 27.1067 79.7765 27.0084 79.8466 26.9366C79.9168 26.8649 80.0628 26.8293 80.2836 26.8293H81.2393V27.0853H81.2387Z" fill="#1E1E1E"/>
<path d="M84.5565 27.5299C84.4254 27.5989 84.2856 27.6333 84.1379 27.6333C84.0913 27.6333 84.0436 27.6316 83.9953 27.6277C83.947 27.6237 83.8699 27.6045 83.7658 27.5701C83.6612 27.5356 83.5721 27.4876 83.4985 27.4277C83.4249 27.3678 83.357 27.2723 83.2961 27.1412C83.2345 27.0106 83.2046 26.8558 83.2046 26.6767C83.2046 26.4975 83.2351 26.3421 83.2961 26.2116C83.357 26.0811 83.4243 25.9867 83.4985 25.9285C83.5721 25.8703 83.6612 25.824 83.7658 25.7889C83.8699 25.7539 83.9458 25.7347 83.9941 25.7313C84.0418 25.7279 84.0896 25.7256 84.1384 25.7256C84.2862 25.7256 84.4254 25.7607 84.557 25.8307C84.6881 25.9002 84.7962 25.9867 84.8808 26.0884L85.1723 25.9002C85.032 25.7109 84.8762 25.5781 84.7054 25.5024C84.5346 25.4273 84.3368 25.3894 84.112 25.3894C83.729 25.3894 83.4203 25.5103 83.1868 25.7522C82.9528 25.994 82.8361 26.302 82.8361 26.6767C82.8361 27.0547 82.9528 27.3644 83.1868 27.6062C83.4208 27.8481 83.729 27.969 84.112 27.969C84.3368 27.969 84.5346 27.9317 84.7054 27.856C84.8762 27.7808 85.032 27.648 85.1723 27.4582L84.8808 27.27C84.7957 27.374 84.6876 27.4604 84.5565 27.5299Z" fill="#1E1E1E"/>
<path d="M88.4222 25.4272L87.4751 27.5955L86.5304 25.4272H86.1176L87.2722 28.0521C87.1876 28.2719 87.0945 28.4431 86.9927 28.564C86.8909 28.6849 86.7593 28.7454 86.5971 28.7454C86.4965 28.7454 86.4005 28.733 86.3085 28.7081L86.2331 29.033C86.3861 29.0692 86.5275 29.0867 86.6569 29.0867C86.7938 29.0867 86.9162 29.0602 87.0255 29.0076C87.1342 28.9551 87.2285 28.872 87.3078 28.7607C87.3872 28.6488 87.4447 28.5578 87.482 28.4877C87.5188 28.4177 87.5671 28.3148 87.6264 28.1792L88.835 25.4284H88.4222V25.4272Z" fill="#1E1E1E"/>
<path d="M0.94413 21.6786C0.320829 21.6786 -0.102945 21.1367 0.0218298 20.3665C0.146605 19.7104 0.370855 19.1685 0.695155 18.7402L10.0188 6.47337C10.2183 6.21682 10.0435 5.84556 9.74451 5.84556H3.91056C3.23723 5.84556 2.83876 5.21776 2.96353 4.50462L3.41203 2.22225C3.53681 1.56619 4.0106 1.13843 4.58388 1.13843H17.3972C18.0205 1.13843 18.4443 1.68034 18.3195 2.45055C18.1947 3.10661 17.9952 3.64852 17.6715 4.04803L8.32311 16.3431C8.12358 16.5996 8.29838 16.9709 8.59738 16.9709H14.4308C15.1041 16.9709 15.5026 17.5987 15.3778 18.3118L14.9293 20.5942C14.8045 21.2503 14.3307 21.678 13.7574 21.678H0.94413V21.6786Z" fill="#1E1E1E"/>
<path d="M23.4801 7.55774C24.9009 7.55774 26.0228 8.01433 26.8703 8.95575C27.0946 9.2123 27.2941 9.18404 27.4689 8.81335C27.6931 8.27144 28.0675 7.98607 28.566 7.98607H30.2111C30.8344 7.98607 31.2581 8.52798 31.1334 9.29819L29.0392 20.5953C28.9144 21.2514 28.4406 21.6791 27.8674 21.6791H26.596C26.0975 21.6791 25.7985 21.4226 25.6737 20.8807C25.599 20.5671 25.2747 20.5382 25.1505 20.7383C24.353 21.6509 23.4054 22.1075 22.2835 22.1075C20.5137 22.1075 19.1423 21.2802 18.17 19.6256C17.1977 17.9711 16.8987 16.0311 17.3224 13.8347C18.0458 9.95425 20.3642 7.55774 23.4801 7.55774ZM23.4054 17.6851C24.0534 17.6851 24.6767 17.4857 25.3 17.0573C25.6243 16.8008 25.8485 16.4295 25.9233 15.9164L26.2223 14.3472C26.297 13.9477 26.247 13.6052 26.0475 13.2916C25.5242 12.4073 24.8009 11.9795 23.8539 11.9795C22.5325 11.9795 21.4607 12.9209 21.1864 14.4902C20.8874 16.2018 21.8845 17.6851 23.4054 17.6851Z" fill="#1E1E1E"/>
<path d="M36.1192 7.9855C36.593 7.9855 36.892 8.24205 37.0168 8.78453C37.0915 9.09815 37.4405 9.12697 37.5653 8.92693C38.3628 8.01432 39.3104 7.55774 40.4323 7.55774C42.2021 7.55774 43.5735 8.38502 44.5458 10.0396C45.5181 11.6941 45.8171 13.6341 45.3934 15.8305C44.6706 19.7104 42.3522 22.1063 39.2357 22.1063C37.9396 22.1063 36.8926 21.7068 36.0697 20.9366C35.8455 20.7083 35.4965 20.7942 35.4217 21.1649L34.3746 26.8706C34.2499 27.5266 33.7761 27.9544 33.2028 27.9544H31.3582C30.7349 27.9544 30.3111 27.4125 30.4359 26.6423L33.6766 9.06933C33.8014 8.41327 34.2752 7.9855 34.8484 7.9855H36.1192ZM39.3099 11.9795C38.6118 11.9795 37.9885 12.179 37.4152 12.6073C37.0909 12.8639 36.8667 13.2351 36.7919 13.7482L36.4929 15.3174C36.4182 15.717 36.4682 16.0588 36.6672 16.373C37.2157 17.2574 37.9385 17.6851 38.8608 17.6851C40.1821 17.6851 41.2539 16.7437 41.5282 15.1745C41.8278 13.4628 40.8307 11.9795 39.3099 11.9795Z" fill="#1E1E1E"/>
<path d="M47.3368 21.6786C46.7135 21.6786 46.2898 21.0796 46.4145 20.3665L49.9048 1.65268C50.0296 0.996618 50.5034 0.568848 51.0766 0.568848H52.9212C53.5445 0.568848 53.9683 1.11076 53.8435 1.88097L52.1231 11.1811C52.0484 11.5518 52.4221 11.723 52.5969 11.4665L54.7411 8.58511C55.0401 8.18559 55.4144 7.98612 55.8629 7.98612H58.3809C59.0542 7.98612 59.3532 8.78515 58.8794 9.35531L55.1402 13.8342C54.9159 14.0907 54.8912 14.3761 55.0154 14.6903L57.2838 20.4812C57.508 21.0802 57.1843 21.6792 56.6104 21.6792H54.1926C53.5693 21.6792 53.1455 21.3656 52.9212 20.7095L51.5251 16.8014C51.4257 16.5449 51.1261 16.4878 51.0513 16.8297L50.3533 20.5954C50.2285 21.2514 49.7547 21.6792 49.1814 21.6792H47.3368V21.6786Z" fill="#1E1E1E"/>
<path d="M64.9618 7.55774C66.3826 7.55774 67.5044 8.01433 68.352 8.95575C68.5762 9.2123 68.7757 9.18404 68.95 8.81335C69.1742 8.27144 69.5485 7.98607 70.0471 7.98607H71.6921C72.3154 7.98607 72.7392 8.52798 72.6144 9.29819L70.5203 20.5953C70.3955 21.2514 69.9223 21.6791 69.3484 21.6791H68.0771C67.5786 21.6791 67.2796 21.4226 67.1548 20.8807C67.0801 20.5671 66.7558 20.5382 66.6316 20.7383C65.834 21.6509 64.8864 22.1075 63.7646 22.1075C61.9948 22.1075 60.6234 21.2802 59.6511 19.6256C58.6787 17.9711 58.3797 16.0311 58.8035 13.8347C59.5269 9.95425 61.8453 7.55774 64.9618 7.55774ZM64.887 17.6851C65.535 17.6851 66.1583 17.4857 66.7816 17.0573C67.1059 16.8008 67.3302 16.4295 67.4049 15.9164L67.7039 14.3472C67.7787 13.9477 67.7287 13.6052 67.5291 13.2916C67.0059 12.4073 66.2825 11.9795 65.3355 11.9795C64.0142 11.9795 62.9424 12.9209 62.6681 14.4902C62.3691 16.2018 63.3661 17.6851 64.887 17.6851Z" fill="#1E1E1E"/>
<path d="M77.7251 7.9855C78.2983 7.9855 78.6226 8.27087 78.7221 8.86986C78.7721 9.15522 79.0959 9.29763 79.3701 8.92693C80.1182 8.01432 81.0405 7.55774 82.1123 7.55774C83.6079 7.55774 84.6049 8.61331 84.8298 10.5532C84.9292 11.2381 84.6555 11.6941 84.0069 11.9513L82.1123 12.6073C81.5638 12.8068 81.1153 12.6356 80.7409 12.0937C80.5661 11.8371 80.3172 11.6941 80.0182 11.6941C79.5944 11.6941 79.1459 12.0648 78.6221 12.778C78.4726 13.0063 78.3731 13.2628 78.3231 13.5199L77.0017 20.5947C76.8769 21.2508 76.4031 21.6786 75.8299 21.6786H73.9853C73.362 21.6786 72.9382 21.1367 73.063 20.3665L75.1571 9.06933C75.2819 8.41327 75.7557 7.9855 76.329 7.9855H77.7251Z" fill="#1E1E1E"/>
<path d="M86.4501 21.6786C85.8268 21.6786 85.403 21.1367 85.5278 20.3665L86.9239 12.8068C86.9986 12.4362 86.8491 12.2649 86.5248 12.2649H86.3753C85.752 12.2649 85.3783 11.7801 85.5031 11.067L85.9021 8.95581C86.0269 8.29975 86.3759 7.98613 86.9739 7.98613H87.3229C87.6472 7.98613 87.8462 7.78666 87.9215 7.4154L88.7691 2.79415C88.8938 2.13809 89.3671 1.71033 89.9409 1.71033H91.7855C92.4088 1.71033 92.8326 2.25224 92.7078 3.02245L91.9091 7.38658C91.8344 7.78609 91.9592 7.98556 92.3329 7.98556H92.9562C93.6295 7.98556 93.9533 8.49922 93.8285 9.21236L93.4294 11.2664C93.3047 11.9225 92.9309 12.2649 92.3576 12.2649H91.5101C91.1858 12.2649 90.9868 12.4644 90.9121 12.8357L89.466 20.5954C89.3412 21.2514 88.8674 21.6792 88.2941 21.6792H86.4501V21.6786Z" fill="#1E1E1E"/>
</svg>
